<?xml version="1.0" encoding="UTF-8" standalone="no"?>
<svg
   xmlns:dc="http://purl.org/dc/elements/1.1/"
   xmlns:cc="http://creativecommons.org/ns#"
   xmlns:rdf="http://www.w3.org/1999/02/22-rdf-syntax-ns#"
   xmlns:svg="http://www.w3.org/2000/svg"
   xmlns="http://www.w3.org/2000/svg"
   xmlns:sodipodi="http://sodipodi.sourceforge.net/DTD/sodipodi-0.dtd"
   xmlns:inkscape="http://www.inkscape.org/namespaces/inkscape"
   inkscape:version="1.0 (4035a4fb49, 2020-05-01)"
   sodipodi:docname="flask.svg"
   id="svg4"
   version="1.1"
   preserveAspectRatio="xMinYMin meet"
   viewBox="0 0 256 236.88"
   height="1800"
   width="1945">
  <metadata
     id="metadata10">
    <rdf:RDF>
      <cc:Work
         rdf:about="">
        <dc:format>image/svg+xml</dc:format>
        <dc:type
           rdf:resource="http://purl.org/dc/dcmitype/StillImage" />
        <dc:title></dc:title>
      </cc:Work>
    </rdf:RDF>
  </metadata>
  <defs
     id="defs8" />
  <sodipodi:namedview
     inkscape:current-layer="svg4"
     inkscape:window-maximized="1"
     inkscape:window-y="-9"
     inkscape:window-x="-9"
     inkscape:cy="768.07234"
     inkscape:cx="392.68072"
     inkscape:zoom="0.332"
     showgrid="true"
     id="namedview6"
     inkscape:window-height="1001"
     inkscape:window-width="1920"
     inkscape:pageshadow="2"
     inkscape:pageopacity="0"
     guidetolerance="10"
     gridtolerance="10"
     objecttolerance="10"
     borderopacity="1"
     bordercolor="#666666"
     pagecolor="#ffffff"
     inkscape:document-rotation="0">
    <inkscape:grid
       type="xygrid"
       id="grid7" />
  </sodipodi:namedview>
  <path
     d="M 32.59893,4.5386497 C 27.180651,4.5026297 21.777589,8.6355256 28.481963,15.873616 40.604973,22.72295 16.51383,27.760673 23.54983,32.352237 c 2.243,4.827644 -0.168823,10.190513 -6.720823,11.059808 -9.6000013,0.830284 -8.6981887,13.94093 0.66581,7.07259 10.443001,-3.323131 1.792073,1.320316 -3.124936,2.268639 -11.0519957,3.207092 -18.571069,14.2339 -12.1570681,24.32834 6.1400011,13.89373 7.7700757,29.390076 12.5300761,43.845006 7.873001,22.22757 19.388872,43.37572 34.349871,61.64593 7.107011,10.36054 17.510147,17.7129 27.260156,25.38551 9.607,6.22812 20.271884,12.45627 31.204884,15.63336 19.40201,7.10441 40.22817,7.78361 60.62418,9.39317 12.42899,-0.018 24.90683,-0.90216 37.16683,-3.09901 11.04399,1.19051 18.98404,-8.24879 28.95605,-3.26409 6.04799,-5.36483 14.85593,-3.00894 20.89794,-6.90826 4.465,-15.20218 -15.34694,-3.01516 -21.62495,-10.45369 -6.81299,8.02573 -12.54796,-0.86925 -20.82596,1.62961 -14.085,0.71324 1.07106,-6.31126 0.71106,-12.76246 -7.45401,-5.72995 -15.89507,7.86879 -20.67507,11.52604 -11.78999,-2.12673 -23.45003,-5.5077 -34.26504,-10.60953 -12.333,-6.42319 -24.42998,-14.05793 -33.36298,-24.89562 C 115.82885,163.0788 105.49101,151.89413 101.22901,137.68529 92.218,114.21626 92.804788,88.828504 90.502788,64.182104 c 0.851,-16.680683 18.468152,1.79173 26.078152,-4.23332 -2.608,-8.647946 -16.51118,-11.374893 -24.188178,-14.842073 -7.395,-0.510175 -10.101909,-7.143467 -17.987919,-7.685652 0.373001,-9.255153 -14.483971,-4.159477 -19.898971,-10.760736 5.33,-13.743678 -17.62199,0.341132 -15.835991,-11.55792 C 42.172381,7.8478996 37.379765,4.5704297 32.59893,4.5386497 Z m 0.04216,1.08186 c 0.959067,-0.0064 1.99454,0.337077 3.03779,1.1672359 C 42.290881,15.684776 23.549001,5.7612607 30.056001,14.258157 25.763563,12.244096 28.485137,5.6483097 32.64109,5.6205097 Z m 4.091774,16.6120853 c 0.178813,0.01916 0.148456,0.26973 -0.347043,0.941708 -2.6085,1.0256 -0.189393,-0.999197 0.347043,-0.941708 z m 7.897944,0.593775 c 2.465118,-0.03284 4.828763,1.329504 -0.944986,2.093515 h -0.0011 l -1.864781,-0.09721 c -0.183759,-1.454745 1.331727,-1.976603 2.810796,-1.996309 z m -0.455013,6.60302 c 3.341,1.464499 10.174031,2.151816 11.292031,5.814064 -6.826,-3.558213 1.372988,4.29122 -4.355013,4.14717 -3.094,0.04602 -8.827018,-6.612092 -6.937018,-9.961234 z m -2.02108,5.485931 c 0.158146,-7.9e-4 0.265736,0.01828 0.313111,0.05992 7.729001,5.881003 -4.314882,-0.01791 -9.213882,3.677345 -7.22625,0.73525 6.528596,-3.725738 8.900771,-3.737263 z m 19.833934,3.499907 c 1.79978,-0.02968 2.309736,0.78903 0.272237,3.240179 5.498604,6.560766 2.052805,5.084847 -1.708998,0.882048 1.853656,3.576714 -0.86297,11.066541 -5.711054,4.60491 -3.451006,-6.435746 -5.774123,-3.334371 -3.394859,0.907507 -4.82101,-5.413261 -15.347774,-2.43158 -23.226735,0.243014 -5.536226,-0.614525 14.412747,-4.742692 16.550642,-5.702972 3.056626,0.06327 13.25925,-4.109381 17.218767,-4.174686 z m -1.436761,4.122227 c -0.253847,-0.489819 -0.592337,-0.90688 -1.023907,-1.20401 0.339743,0.421832 0.682936,0.823057 1.023907,1.20401 z m 27.289717,4.034794 c 2.137117,-0.0033 4.251435,0.07785 6.344218,0.2551 3.842999,4.480525 -2.910993,12.036085 -9.926994,12.540265 -8.534,3.19208 -17.192025,3.98431 -25.110025,5.03667 -10.167,-1.28243 -17.45889,7.84876 -27.986891,9.00616 2.806001,-5.18577 -2.301959,-1.7646 -7.643959,-2.02769 2.714,10.47857 -18.7809782,-2.79211 -6.080976,-5.31698 -9.5138908,-3.38175 -9.6519747,6.63103 -8.658354,12.33531 l -0.6467868,-0.006 c -8.72400136,-11.23777 0.9799903,-15.8162 12.0179938,-17.25469 -2.099,5.18076 3.014935,6.86834 7.924935,7.80266 7.952011,-2.20375 -5.23185,-3.61034 0.778149,-5.69706 3.303001,-0.60821 -10.541082,-3.32208 0.987918,-4.87261 11.824001,-1.989679 22.469119,-6.620127 34.18612,-9.052956 8.260157,-1.645873 16.182129,-2.736116 23.814652,-2.747979 z M 74.565514,48.01387 c -1.072737,-0.01126 -1.94367,1.219546 -1.776608,4.864383 8.577563,3.30522 4.518044,-4.835603 1.776608,-4.864383 z m 9.163495,1.155407 c -1.189456,0.01852 -3.074724,0.915443 -4.125193,3.669116 0.902001,2.061702 1.33907,-0.614348 1.15707,-1.314586 4.921578,-0.755867 4.59812,-2.379907 2.968123,-2.35453 z M 59.08505,53.59032 c -3.429932,-0.03647 -8.455076,0.76815 -10.30617,2.99125 2.504,1.136384 5.26892,-3.187161 8.87892,-0.466224 7.152751,-1.362069 5.314507,-2.483691 1.42725,-2.525026 z m 49.60797,0.630292 c 1.93191,-0.05441 6.60466,1.870894 4.83291,5.009932 -1.273,0.36513 -1.05894,-1.55751 -2.00694,-1.872616 -4.18641,-2.135987 -4.1478,-3.100087 -2.82597,-3.137316 z m -60.548073,2.636631 c -0.183703,0.0049 -0.508708,0.22874 -1.02802,0.835761 0.5375,1.92097 1.684101,-0.853308 1.02802,-0.835761 z m -5.816195,1.944881 c -0.891511,-2.7e-4 -1.613091,0.40316 -1.698972,1.49974 l 1.73419,1.57766 c 6.84675,0.55894 2.640173,-3.0766 -0.03522,-3.0774 z m -4.585347,0.46828 c -0.329922,0.008 -0.920749,0.25777 -1.854499,0.95251 1.4865,1.1734 2.844264,-0.97661 1.854499,-0.95251 z m 0.277121,2.65206 c -1.087428,0.0421 -2.068645,0.83988 -2.633677,2.92593 1.195,-0.2951 3.092018,0.40529 4.237019,1.26959 7.51953,5.14159 2.280324,-4.34598 -1.603342,-4.19552 z m 47.508227,1.11529 c 5.561213,-0.0179 3.768547,15.42238 1.805141,20.28995 3.838,-2.6229 3.111982,12.15308 1.862982,17.667976 2.087586,-2.797666 2.945362,4.48569 0.650643,9.6804 0.482704,-0.80659 4.929183,-1.28137 1.45527,4.67152 -2.740001,-6.03806 -3.917842,12.28409 -2.157841,4.06128 4.837,-7.77665 3.571044,-0.41798 5.047044,3.01619 0.949,7.13043 4.114807,13.70966 5.074804,20.02275 4.467004,4.50655 -1.915971,1.4516 -1.889971,7.54269 1.451999,-1.76661 7.390135,2.49175 7.350135,8.81791 0.491,-10.02242 1.0659,-2.34982 5.9509,0.25407 4.088,6.58625 7.12793,12.74229 13.21593,18.15914 4.74801,5.49487 -0.28185,1.66173 1.77815,5.01687 5.048,8.95506 16.73294,14.12174 26.84294,16.45754 4.434,5.77597 11.08991,11.5269 20.1,8.90201 -7.6301,4.70459 21.4809,5.98508 11.63291,8.64099 -5.119,2.77494 -9.97191,-1.78478 -14.95991,-1.54269 -6.93899,-2.38781 -17.92404,-9.7271 -25.36503,-4.74841 -10.28,6.4492 5.26999,-7.18257 -3.07301,-1.08648 -8.46172,10.15212 -5.74218,-6.31715 -13.98818,-1.39405 -0.47841,-1.5751 -7.33013,-2.0075 -2.14473,-4.77412 -4.648,-0.2871 -1.75204,-0.58212 -0.065,-4.29838 -1.995,-0.41214 -13.09189,-0.0251 -17.4599,-3.67528 -5.132,-6.67828 0.89585,-3.96427 6.25785,-2.98894 -8.591,1.5105 2.97612,6.44822 8.72313,3.70228 -2.59,-1.10737 -5.54415,-6.69832 -12.37815,-11.57797 -9.55301,-5.76397 -17.425964,-8.50493 -27.325965,-13.0965 -10.731999,-6.36517 2.406139,-2.2377 6.11414,1.11143 10.698001,4.72362 6.492917,-6.61923 0.287917,-9.57524 -5.88155,0.23763 -7.989539,-5.54874 -11.960669,-6.84603 7.428702,0.52569 11.761453,-3.1673 2.962726,-11.11715 -9.10301,-10.62963 3.790918,7.99266 -1.512082,5.59984 -2.41201,-3.17907 -0.607086,-7.73051 -8.303086,-9.38109 -0.078,2.94401 -1.03491,7.48353 -2.71491,1.30842 -2.144,0.36613 -4.603954,2.70885 -6.361954,-3.64932 1.661001,-7.22942 -7.160052,-8.87693 -8.520051,-13.50151 7.612,4.86566 11.056982,1.02141 5.662982,-4.2904 -3.714001,-6.48921 -4.231916,-1.38654 -6.296916,-0.48423 -7.467999,7.6266 -0.680144,-13.16861 -3.996144,-7.17057 -3.348,-0.091 -1.431979,3.68438 -1.371979,8.36198 -10.915009,-2.71093 2.64,5.74193 5.8,10.39351 -4.991,-5.22178 -4.132943,3.9164 -8.297944,-0.42508 -1.413,-3.84031 -1.616043,-9.91058 -8.547044,-10.98394 7.879,-2.73494 -4.676077,-8.27363 -3.630077,-8.56873 4.513,-4.1014 5.087079,-9.73427 10.52108,-0.90828 -6.884999,-0.55019 -0.20891,11.35387 1.48509,7.80266 -0.261,-6.10208 2.81891,-12.51943 -7.585089,-15.33838 -3.060001,4.12039 -8.33788,-8.060696 -2.222881,-5.481816 -0.804999,-8.09776 9.502045,-3.33016 8.847045,-6.83035 5.31,-2.3278 -6.428164,-9.85037 -0.124165,-12.85939 4.844001,2.955 17.426011,-4.65147 8.964011,-5.69783 5.297,-0.052 9.533974,2.2638 10.089975,-3.10003 4.283,0.92232 15.851187,4.6254 5.343187,-1.17058 3.348,-1.66756 10.441961,-3.09498 14.534962,-3.153 1.579843,-1.22885 2.861919,-1.76232 3.891774,-1.76564 z m 4.318766,47.638326 c -0.01696,0.0284 -0.02985,0.057 -0.0365,0.0859 0.01274,-0.0283 0.02396,-0.0575 0.0365,-0.0859 z M 85.676053,64.342574 c -0.07805,0.007 -0.203385,0.099 -0.39126,0.32967 0.181188,1.20535 0.729492,-0.36016 0.39126,-0.32967 z m -1.359125,8.81971 c -1.594892,0.12133 -4.233684,8.9421 -2.47198,12.04318 3.8,6.05806 7.600007,-14.88118 4.473007,-7.84278 -1.686,8.94905 -3.413118,5.21986 -0.986117,-1.45242 -0.136407,-2.00693 -0.526678,-2.78512 -1.01491,-2.74798 z m -39.935477,0.56832 c 0.416719,0.009 0.627751,0.34969 -0.154499,1.32127 -1.80625,-0.43327 -0.540033,-1.33693 0.154499,-1.32127 z m -30.129564,1.98551 c 0.873447,-0.0124 1.380547,0.44163 -0.346016,1.77052 -2.989528,-0.73769 -0.930561,-1.75239 0.346016,-1.77052 z m 35.430335,4.82966 c -0.112921,-0.006 -0.253721,0.0203 -0.426221,0.0941 0.6405,1.60705 1.216674,-0.0501 0.426221,-0.0941 z m -18.701028,0.54132 c 0.628886,-0.005 1.610823,0.0569 3.04473,0.20495 8.462,-0.28209 5.74899,4.6967 0.93599,5.02382 -0.106001,0.32711 -4.393939,-1.02643 -2.615938,-2.20384 11.798109,1.49142 -6.485722,-2.98422 -1.364782,-3.02493 z m 20.592288,1.94025 c -0.0755,0.0626 2.697975,5.08474 1.449357,6.91469 2.387,2.3478 10.494064,6.5412 3.975064,0.79024 4.145001,-0.83028 -0.54802,-2.15869 -3.02802,-4.12736 -1.702578,-2.55727 -2.318825,-3.53523 -2.390745,-3.5768 -0.0027,-0.002 -0.0045,-0.002 -0.0057,-7.9e-4 z m -26.960412,1.24335 c 0.06362,-3.9e-4 0.127072,4e-4 0.190232,0.002 1.783328,0.0549 3.301125,1.05789 -0.186376,3.19518 -4.065722,-2.03613 -1.975924,-3.18428 -0.0039,-3.19749 z m 34.455271,0.18335 c -0.37218,-0.003 -0.805153,0.34185 -1.252443,1.28142 3.235323,4.1069 2.712531,-1.26871 1.252443,-1.28142 z m -20.291774,2.93648 c 0.140186,0.0166 0.296365,0.29982 0.422364,1.07183 -1.118999,1.23042 -0.842927,-1.12158 -0.422364,-1.07183 z m -9.2018,0.08 c 0.869562,-10e-4 1.607356,0.3956 0.547044,1.52211 -3.370125,-0.6682 -1.817941,-1.52034 -0.547044,-1.52211 z m -17.196659,0.97231 c 0.215491,10e-4 0.458351,0.35967 0.578664,1.42722 -1.393563,0.29573 -1.052743,-1.42995 -0.578664,-1.42722 z m 14.368638,0.74447 c 0.413671,0.0136 0.728092,0.43007 0.555013,1.62986 -3.070547,0.56551 -1.53476,-1.66215 -0.555013,-1.62986 z m 51.705914,0.55957 c -0.0592,0.0107 -0.06079,0.25997 0.04422,0.90031 1.551875,3.48681 0.212325,-0.94686 -0.04422,-0.90031 z m -68.216195,0.83139 c 0.148259,-0.008 0.297692,0.25983 0.36041,1.06926 -1.1097488,0.78011 -0.7392978,-1.04788 -0.36041,-1.06926 z m 40.177891,2.37176 c -0.244886,0.004 -0.47265,0.0276 -0.679691,0.072 1.112597,1.62817 4.139638,0.91575 5.557325,2.48594 12.165699,5.031356 0.107524,-2.64806 -4.877634,-2.55795 z m -0.679691,0.072 c -2.64e-4,-4e-4 -5.27e-4,-6.6e-4 -7.9e-4,-0.001 v 0.001 c 2.63e-4,-5e-5 5.26e-4,5e-5 7.9e-4,0 z m 29.862467,0.17564 c -0.132193,-0.0438 0.06442,0.67707 0.953729,2.87347 2.29125,3.21325 -0.588253,-2.7524 -0.953729,-2.87347 z m -31.714138,0.81467 c -0.810315,0.0316 -0.805338,0.8418 0.705912,2.92799 0.884,1.97567 3.007866,2.13981 4.767867,2.603968 13.432921,6.201798 -2.294856,-5.655998 -5.473779,-5.531958 z m -24.835734,0.98543 c 2.046254,0.0231 6.193866,1.36002 2.924679,2.64177 l -1.124935,-0.40502 c -3.616033,-1.65319 -3.199812,-2.25253 -1.799744,-2.23675 z m 20.463754,1.76667 c -0.62336,0.0328 -0.08523,0.98584 2.809769,3.565216 l 1.890232,1.90863 c 9.494249,2.61014 -2.829923,-5.572276 -4.700001,-5.473846 z m 38.471723,1.96287 c -0.02176,-0.0124 -0.03563,0.10455 -0.03188,0.43691 0.371312,2.099416 0.12618,-0.38301 0.03188,-0.43691 z m -66.781236,0.0157 c 0.640044,2.7e-4 1.51172,0.996947 2.040361,3.966396 -3.586219,-0.80105 -3.181306,-3.966856 -2.040361,-3.966396 z m 8.686119,0.19493 c 1.052323,-9.2e-4 2.284351,0.750508 2.554241,2.993056 -5.734874,-0.59919 -4.430119,-2.991496 -2.554241,-2.993056 z m 18.344731,0.38805 c -0.48975,-0.0166 3.925988,4.691666 1.890488,4.612886 -7.056,-5.153756 -4.171946,-1.50461 -0.188946,2.46072 4.315,6.4172 7.878959,-3.84631 0.843959,-5.12975 -1.674001,-1.407739 -2.382252,-1.938326 -2.545501,-1.943856 z m -19.88252,3.434596 c 0.896125,-0.0335 2.663638,0.56344 2.614139,1.89138 -3.535001,-1.1939 -3.510264,-1.85787 -2.614139,-1.89138 z m 30.564525,2.28226 c -0.222213,0.0261 -0.08532,0.6499 0.847557,2.39618 3.126236,2.02757 -0.233203,-2.4684 -0.847557,-2.39618 z m -1.833933,0.53333 c -0.215146,-0.0102 -0.558927,0.1641 -1.065553,0.6663 0.960938,1.76311 1.833932,-0.62971 1.065553,-0.6663 z m 35.426993,0.19622 c -0.144251,0.0113 -0.368434,0.90182 -0.679434,3.42018 0.824999,4.42501 1.112184,-3.45395 0.679434,-3.42018 z m -14.275579,0.1584 c -0.153437,-0.0323 -0.224169,0.8414 -0.0039,3.54388 1.079375,0.98346 0.341416,-3.47281 0.0039,-3.54388 z m -43.412598,0.62027 c 0.135214,0.003 0.31955,0.0786 0.558612,0.27258 -0.807624,1.05661 -1.144535,-0.28654 -0.558612,-0.27258 z m 49.578922,0.0224 c -1.523297,0.01 -2.653538,10.78636 1.107712,13.03863 1.544001,4.44952 3.172103,2.63499 3.740103,-2.40673 -3.63,0.079 1.511845,-7.91569 -3.360155,-6.33815 -0.428499,-3.10381 -0.979894,-4.29702 -1.48766,-4.29375 z m 10.324421,0.10415 c -0.316413,0.0217 -0.818161,1.54397 -1.017737,5.27403 v 5.3e-4 2.6e-4 l 0.02005,1.26959 c 1.516999,-3.7857 1.431322,-6.57419 0.997685,-6.54439 z m -70.938819,0.49065 c 1.042486,0.003 6.407604,10.91439 5.675065,13.94949 -3.359999,-1.1724 -3.197897,-6.43734 -4.759897,-9.21728 -1.117875,-3.41847 -1.277294,-4.73339 -0.915168,-4.73221 z m 40.052187,0.55289 c -0.896,2.47785 1.88401,10.58951 3.56401,13.35545 4.282001,6.59525 2.354013,-3.61025 7.055014,2.96399 -2.576001,-5.77497 1.230036,-2.6419 0.674035,-5.10174 -1.19,-2.47984 -12.751174,-15.62016 -7.488175,-5.6968 4.768001,11.83905 -3.000885,-1.48552 -3.804884,-5.5209 z m -42.610027,1.82865 c 0.999407,0.0778 4.953271,6.30132 5.643959,9.66318 5.413717,6.54089 3.289304,10.13919 8.898201,18.145 -7.218363,-4.56121 -8.578521,-15.44373 -13.168124,-22.47552 -1.645547,-3.94278 -1.862118,-5.37064 -1.374036,-5.33266 z m 35.995374,2.05494 c -0.01012,-0.001 -0.02025,-0.001 -0.03033,2.6e-4 -0.197585,0.0285 -0.386291,0.58695 -0.488946,2.09403 1.843457,3.32252 1.156846,-2.01544 0.51928,-2.09429 z m 5.479178,2.53299 c -0.349553,-0.0185 -0.755292,0.31233 -1.185605,1.22201 3.160626,5.496 2.70033,-1.14191 1.185605,-1.22201 z m -22.809512,3.19621 c 0.843537,0.0137 1.36369,0.27189 -0.49306,0.89773 -2.210626,-0.52893 -0.591489,-0.91538 0.49306,-0.89773 z m 56.879435,2.03848 c -0.07325,-0.0238 -0.252986,0.38789 -0.599486,1.61906 0.0795,2.44433 0.819235,-1.54774 0.599486,-1.61906 z m -54.619538,3.29547 c 1.592772,-0.0207 2.955506,0.45533 -0.142931,1.6548 -3.762844,-0.96986 -1.662212,-1.63135 0.142931,-1.6548 z m 12.74113,0.55983 c 0.38762,-0.0119 0.776278,0.47341 0.741903,1.96442 -2.218125,-0.107 -1.481901,-1.94168 -0.741903,-1.96442 z m -3.427762,0.45491 c 0.121297,-0.005 0.233196,0.12571 0.253727,0.521 -0.935094,0.3861 -0.563717,-0.50889 -0.253727,-0.521 z m 11.118508,0.17692 c 0.04012,-7.9e-4 0.08099,-1.3e-4 0.121852,0.002 0.50847,0.0244 1.030014,0.26048 0.457327,0.78741 -1.634248,-0.46897 -1.180913,-0.77823 -0.579179,-0.78921 z m 33.274552,0.26925 c -0.03922,0.0164 -0.105546,0.19329 -0.208484,0.63106 0.04225,2.23757 0.378432,-0.7023 0.208484,-0.63106 z m 2.270179,0.95971 c -0.005,-0.001 -0.01008,-0.001 -0.01517,2.6e-4 -0.09969,0.0249 -0.217547,0.50096 -0.332391,1.7839 0.778534,2.82117 0.662036,-1.71928 0.347558,-1.78416 z m -37.286118,4.95027 v 2.6e-4 c 3.621338,-0.0612 1.435851,10.42458 6.040617,11.78757 9.749,12.72834 -6.78106,0.37831 -12.29306,-0.85711 l -0.0011,-0.001 c 0.707,-0.044 -4.877923,-1.58162 -2.469923,-2.1308 -1.767001,-1.81862 -5.716,-8.40676 3.3,-3.99725 7.18,3.59621 7.789922,1.17041 4.369923,-4.54654 0.397969,-0.16865 0.746578,-0.24966 1.053471,-0.25484 z m -32.330079,1.80447 c 0.751625,-0.10704 5.182676,7.13031 6.028536,10.25748 2.719999,8.68096 11.266077,13.67179 12.130076,19.42975 9.475011,5.46686 4.616895,14.36382 12.568895,16.87567 3.530001,-1.79361 3.890085,10.74066 11.403085,8.12977 -4.177999,1.95566 1.744988,4.25844 3.844987,7.90269 4.734001,-0.64222 15.124949,10.46565 4.77995,6.63233 h -0.0011 c -4.354001,-0.92931 -7.32791,-5.46197 -10.414911,-8.42497 -9.148,-5.80898 -15.08597,-15.55031 -20.10797,-24.86349 -6.473999,-9.77933 -14.248895,-19.57949 -18.668895,-31.01339 -1.541375,-3.526 -1.880077,-4.88064 -1.562725,-4.92584 z m 44.111056,4.15566 c -0.119313,0.001 -0.251492,0.0199 -0.39743,0.0589 1.079062,3.73909 2.187117,-0.0804 0.39743,-0.0589 z m 9.053469,0.86173 c -0.124888,-0.005 -0.08727,0.22717 0.273008,0.87665 2.692969,2.17808 0.173025,-0.85934 -0.273008,-0.87665 z m 19.583806,2.43193 c -0.607445,0.0408 -0.772412,1.4387 0.764267,4.88187 l 0.837019,1.38042 c 1.058546,-3.46068 -0.64333,-6.19694 -1.541132,-6.26202 -0.02047,-0.001 -0.04056,-0.002 -0.06015,0 z m -50.717996,2.31544 c 0.525628,0.0199 0.869328,0.33689 0.273265,1.2251 -2.943282,-0.2186 -1.276737,-1.26311 -0.273265,-1.2251 z m -0.868894,6.93965 c 0.801,-0.002 2.669584,1.04162 3.203084,3.13834 -3.7375,-2.08771 -4.004085,-3.13609 -3.203084,-3.13834 z m 30.630335,0.26873 c 0.996423,-0.002 2.271721,0.61878 2.271721,2.37843 -4.588499,-1.04535 -3.728032,-2.37618 -2.271721,-2.37843 z m -13.785348,1.43544 c 2.220284,0.0474 8.042887,2.19616 10.082262,2.59754 0.457,1.94167 -9.227039,1.65368 -0.765038,5.44197 -4.939,-0.13805 -6.42192,-0.52429 0.621079,3.78818 -2.766999,2.22975 5.576855,4.00144 2.712854,7.33257 8.494,6.63125 -1.543039,1.6746 -5.165039,-1.03531 h -0.0011 c -2.144,-1.48351 -10.873823,-4.44755 -9.520823,-6.40321 10.306001,5.41684 2.622805,-0.20897 -1.916195,-3.80618 8.306,2.03469 -6.663959,-6.15625 1.256041,-3.99752 2.34,0.5692 -3.55691,-4.8477 4.18509,-0.90236 -2.85675,-2.31603 -2.821373,-3.04409 -1.489203,-3.01568 z m 39.621842,2.10714 v 0 c -0.0103,-0.001 -0.0209,-0.001 -0.0316,0 -0.192204,0.026 -0.448694,0.47247 -0.761944,1.65018 1.292754,3.47187 1.443964,-1.58051 0.793564,-1.65069 z m -50.737524,0.82395 c 0.828875,-0.0507 3.132408,0.91895 4.423908,3.06067 -4.607,-1.93916 -5.252782,-3.01004 -4.423908,-3.06067 z m -5.953212,3.49629 c 0.571286,0.0267 2.78719,1.60586 3.250127,3.3896 -3.143875,-2.49198 -3.694471,-3.41035 -3.250127,-3.3896 z m 63.570696,5.13261 c -0.39831,-0.0372 -0.35977,0.69698 0.82031,2.97478 3.51703,1.52701 0.12307,-2.88676 -0.82031,-2.97478 z m -22.017482,5.74745 c 0.324886,0.012 0.651784,0.29145 0.71491,1.09266 -2.134688,0.14856 -1.429661,-1.11907 -0.71491,-1.09266 z m 26.363242,0.27439 c -0.0742,-0.008 -0.1208,0.40155 -0.0913,1.57148 0.86975,2.94866 0.3337,-1.5439 0.0913,-1.57148 z m -67.681496,0.19621 c -0.084,0.004 -0.157625,0.0949 -0.207969,0.31475 1.624219,2.90569 0.721274,-0.33748 0.207969,-0.31475 z m 45.777379,2.15214 c 0.270715,-0.009 0.68938,0.31337 1.179691,1.30277 -1.654124,0.3418 -1.775261,-1.28281 -1.179691,-1.30277 z m 24.313887,1.09756 c -0.85032,-0.0117 0.21013,3.84907 2.47995,6.22319 5.04301,5.99904 1.19079,-3.40212 -0.56221,-4.10936 -0.95991,-1.51177 -1.58501,-2.10924 -1.91774,-2.11383 z m -47.423656,1.61006 v 0 c 1.727194,0.0255 6.525163,1.13349 2.32545,1.38659 -3.110937,-1.00065 -3.302525,-1.3605 -2.482519,-1.38557 0.04892,-0.001 0.101353,-0.002 0.157069,-0.001 z m 12.885091,0.77094 c 2.216862,0.0957 12.664832,5.54502 1.144472,1.83354 -1.73039,-1.39055 -1.823104,-1.86281 -1.144472,-1.83354 z m -12.422366,1.04921 c 0.30054,0.0103 0.630472,0.24423 0.771722,0.91445 -1.951125,0.12242 -1.432909,-0.93716 -0.771722,-0.91445 z m 5.337532,0.14014 c 0.04486,-0.001 0.09377,-0.001 0.146016,0.001 1.39334,0.0548 5.240074,1.27088 2.166323,1.59849 -2.770312,-1.1683 -2.985164,-1.57971 -2.312339,-1.59952 z m -2.766838,2.3494 c 2.808251,0.0309 7.410046,1.30142 10.238047,2.80944 12.439,2.76594 -2.641054,6.08813 -7.611055,2.27583 l -2.103855,-0.45722 c -4.346001,-3.45017 -3.331387,-4.65894 -0.523137,-4.62805 z m 9.604628,0.3253 c 0.05012,-0.003 0.209107,0.0987 0.549357,0.39628 0.131251,0.56494 -0.699732,-0.38713 -0.549357,-0.39628 z m 5.439332,0.96253 c 1.314072,-0.0108 5.647026,1.82094 7.545244,3.58734 5.952,0.81128 5.983999,3.52708 -0.6,1.83251 -1.17,-0.72024 -3.060041,-0.68018 -3.656042,-2.19869 -3.674125,-2.34364 -4.188304,-3.21363 -3.289202,-3.22116 z m 7.744729,0.11188 c 1.878501,-0.0326 4.945283,0.51024 5.910283,1.93973 13.051005,2.09271 -0.823973,3.00906 -4.689974,-0.4261 -3.789,-0.87281 -3.098808,-1.481 -1.220309,-1.51363 z m 38.864528,4.4393 c 0.41407,-0.007 0.79514,0.41502 0.818,1.68488 -2.96511,0.7505 -1.7987,-1.66901 -0.818,-1.68488 z m -38.652959,2.89404 c 1.936055,0.0188 10.140299,3.48195 3.795887,2.66517 l -1.94216,-0.64211 c -2.409187,-1.51027 -2.611314,-2.03041 -1.853727,-2.02306 z m -17.99923,0.38317 c 0.771001,0.0239 2.416109,0.51604 2.622109,1.40484 -3.29,-0.98433 -3.393108,-1.42873 -2.622109,-1.40484 z m 11.695631,0.41272 c 0.406704,-0.005 0.906932,0.22454 1.147558,0.92603 -2.359875,-0.0558 -1.923995,-0.91714 -1.147558,-0.92603 z m 49.534458,1.35754 c 0.51497,-0.0133 1.17904,0.31218 1.57686,1.32898 -2.99916,-0.0433 -2.56001,-1.30359 -1.57686,-1.32898 z m 3.95629,2.78527 c 0.18034,-0.0111 0.39528,0.15156 0.53059,0.66861 -1.15637,0.22076 -0.92733,-0.64418 -0.53059,-0.66861 z m -47.522881,0.86122 c 2.395368,0.03 13.327801,5.93657 4.025449,3.30653 l -1.396915,-0.54209 -1.603085,-0.72621 c -1.692188,-1.50568 -1.758736,-2.04741 -1.025449,-2.03823 z m 7.965291,0.26564 c 0.71247,0.0218 1.44429,0.39298 1.20129,1.41334 -3.522501,-0.51581 -2.388747,-1.44973 -1.20129,-1.41334 z m -11.797426,1.392 c 1.187611,-0.001 2.549237,0.44223 1.050643,1.4879 -3.519,-0.91405 -2.396602,-1.48654 -1.050643,-1.4879 z m 15.525706,2.75363 c 0.0754,-0.0126 0.27278,0.12016 0.6509,0.55186 -0.39187,0.20631 -0.81675,-0.52416 -0.6509,-0.55186 z m 107.29897,1.76873 c 0.28929,0.0191 0.49505,0.4932 0.29693,1.85616 -1.97313,0.26134 -0.93333,-1.89823 -0.29693,-1.85616 z m -60.06657,1.53574 c -0.0541,0.001 -0.11177,0.003 -0.17327,0.007 0.0562,1.44975 1.85039,-0.0312 0.17327,-0.007 z m -63.016717,0.27644 c 0.805377,-0.0183 1.041388,0.34828 -0.742674,1.50438 -4.407375,-0.0309 -0.794865,-1.46939 0.742674,-1.50438 z m 10.561182,0.18078 c 1.501365,0.001 3.358075,0.43432 1.066071,1.29762 -3.713504,-0.8668 -2.567446,-1.29849 -1.066071,-1.29762 z m 6.113375,1.36602 c 1.30222,-0.006 2.85123,0.57266 1.94473,2.11537 -4.88532,-1.13381 -3.61902,-2.10774 -1.94473,-2.11537 z m 16.17969,1.56737 c 1.36724,0.0306 2.01618,0.50603 -1.09692,1.73942 -4.43412,-0.87847 -0.90135,-1.78409 1.09692,-1.73942 z m -28.712859,0.38214 c 0.176442,-0.0169 0.343393,0.13815 0.385861,0.63698 -1.349094,0.57303 -0.836769,-0.59379 -0.385861,-0.63698 z m 108.467099,0.3919 c 0.65363,0.0284 0.95235,0.47195 -0.36914,1.68361 -2.79563,-0.62521 -0.72024,-1.73098 0.36914,-1.68361 z m -115.415171,1.1765 c 0.7162,-0.003 1.72244,0.32806 0.506941,0.87331 -1.545001,-0.60678 -1.138882,-0.87036 -0.506941,-0.87331 z m 79.329561,1.08417 c 0.34643,0.0134 0.43923,0.22289 -0.35449,0.80953 -1.89262,-0.14508 -0.30684,-0.83488 0.35449,-0.80953 z m -49.6383,0.6578 c 2.31978,-0.0218 10.20147,0.75739 2.28972,0.68174 -3.24938,-0.49643 -3.34416,-0.67182 -2.28972,-0.68174 z M 90.663457,206.741 c 0.227469,0.009 0.460149,0.26351 0.605399,0.97025 -1.922251,1.18691 -1.287805,-0.99688 -0.605399,-0.97025 z m -4.066838,1.20555 c 0.03496,-0.002 0.0741,-0.002 0.117481,0 0.576271,0.026 1.905502,0.39878 4.247815,1.25415 10.901005,6.7393 23.466945,10.30435 35.106945,15.49012 10.242,1.34145 21.05005,4.06256 31.12005,1.89781 8.396,4.19944 17.11287,-1.08531 25.54088,2.72098 -18.62301,3.62334 -37.78802,-0.35319 -56.34602,-2.93108 -11.698,-1.47149 -22.13493,-6.33816 -32.806946,-10.94973 -1.549,-0.73826 -3.007824,-1.64762 -4.484833,-2.51192 -7.335999,-4.06238 -6.428143,-4.89955 0.703857,-0.89619 2.524999,2.00769 20.403972,9.32006 11.889982,4.48841 -3.000705,-0.75266 -17.291796,-8.44197 -15.089211,-8.56255 z m 11.423136,0.7221 c 0.935952,0.0194 1.740871,0.57864 0.279178,1.97342 -2.9025,-1.13101 -1.482543,-1.99837 -0.279178,-1.97342 z m 56.475575,2.46306 c 1.48114,-0.0475 1.5518,1.97792 1.51646,4.67716 -5.61,6.18711 -2.28198,-2.53772 -5.75399,0.82342 v 10e-4 c -3.197,2.54986 -2.42689,-1.52439 -0.69279,-2.48672 2.45194,-2.10228 3.98089,-2.9843 4.93032,-3.01464 z m -5.05732,0.78586 c 0.25343,0.009 -0.0803,0.47366 -1.65913,1.79959 -4.22999,1.63307 0.95845,-1.82451 1.65913,-1.79959 z m -5.84499,1.06257 c 0.12057,0.0116 0.1948,0.25726 0.15193,0.91111 -1.60469,1.99287 -0.58249,-0.95244 -0.15193,-0.91111 z m 55.1419,0.13655 v 0 c 5.5205,0.0243 13.15221,1.74205 17.19229,1.84203 -2.00697,4.22537 -14.45066,0.33923 -19.91079,1.44445 l -2.34113,-0.14324 -1.45194,-0.2299 c 0.30157,-2.24837 2.97267,-2.92882 6.51131,-2.91334 z m -36.89125,0.26848 c 1.28009,0.0263 1.17717,1.18506 -3.74577,4.36627 -2.95034,-2.02361 1.87486,-4.40464 3.74577,-4.36627 z m 71.3743,0.26616 c 0.27096,0.006 0.48486,0.35739 0.45193,1.36524 -2.38682,1.25327 -1.2011,-1.38038 -0.45193,-1.36524 z m -12.06171,0.81775 c 0.35021,-0.001 0.53231,0.43399 0.0907,1.73787 -2.44612,0.37826 -0.8612,-1.73554 -0.0907,-1.73787 z m 23.73368,0.17435 c 12.934,-0.007 0.86505,1.86563 -5.07995,1.84562 -6.74799,-1.59555 3.04695,-1.53051 5.07995,-1.84562 z m -135.58535,1.09189 c 0.94626,-0.0126 1.86524,0.40258 1.03933,1.62215 -3.86353,-0.67116 -2.42233,-1.60365 -1.03933,-1.62215 z m 57.85733,0.57706 c 0.88025,0 1.00546,0.81476 -1.74705,2.58958 l -1.06504,0.34613 c -0.15299,-1.88658 1.81447,-2.93509 2.81209,-2.93571 z m -30.91003,0.59272 c 0.25108,0.001 0.419,0.32418 0.34704,1.23152 -2.87415,2.20881 -1.16723,-1.23384 -0.34704,-1.23152 z m 25.45502,0.0553 c 0.67453,-0.0211 0.61847,0.72118 -1.54191,3.00899 -4.28387,0.27691 0.16064,-2.96589 1.54191,-3.00899 z m -21.78947,0.99391 c 0.18228,-0.006 0.35056,0.19114 0.3815,0.78562 -1.40516,0.57231 -0.84733,-0.77012 -0.3815,-0.78562 z m 33.66787,0.25974 c 0.30606,0.0103 -0.001,0.48914 -1.63033,1.85332 -4.74994,1.67128 0.78419,-1.88183 1.63033,-1.85332 z m -58.01414,0.19054 c 1.99472,0.0188 13.61423,3.3273 15.1617,3.00232 12.836,4.76261 -7.66506,1.57732 -11.90206,-1.09858 -3.34715,-1.4149 -4.04018,-1.91109 -3.25964,-1.90374 z m 53.42802,0.39526 c 0.65016,-0.0189 0.62127,0.62199 -1.65424,2.5749 -2.39937,-0.67898 0.57065,-2.54341 1.65424,-2.5749 z m 7.96453,0.0476 c 0.75106,-0.0217 0.57895,0.66177 -2.1257,2.61348 l -1.5761,1.03326 c -1.9097,-1.32911 2.36293,-3.60814 3.7018,-3.64674 z m -17.23934,2.78655 c 0.23331,-0.0134 0.43126,0.1284 0.42058,0.57912 -1.84216,0.5033 -1.01657,-0.5448 -0.42058,-0.57912 z m 27.40952,6.79049 v 0 c 0.76034,0.018 1.11221,0.39688 -0.45501,1.44574 -2.96935,-0.52803 -0.96182,-1.39991 0.29793,-1.4447 0.0539,-0.002 0.10639,-0.002 0.15708,-0.001 z"
     style="opacity:0.999;fill:#0056ff;fill-opacity:1;stroke-width:1.00017"
     id="path2" />
</svg>
